# xmcd
#
# Track frame offsets: 
#        182
#        14517
#        28310
#        43977
#        57537
#        71482
#        82747
#        100065
#        117977
#        129052
#        139675
#        161432
#        180492
#        195060
#        213292
#        234837
#        256745
#        266690
#        278737
#        293322
#
# Disc length: 4078 seconds
#
# Revision: 1
# Processed by: cddbd v1.5.1PL0 Copyright (c) Steve Scherf et al.
# Submitted via: ExactAudioCopy v0.95a5
#
DISCID=070fec14
DTITLE=Various Artist - White Boy Blues
DYEAR=1997
DGENRE=Blues
TTITLE0=Eric Clapton - Draggin' My Tail
TTITLE1=Savoy Brown Blues Band - I Tried
TTITLE2=Alexis Korner - I'm Your Hoochie Coochie Man
TTITLE3=The Allstars and Nicky Hopkins - Piano Shuffle
TTITLE4=Jeremy Spencer - Look Down At My Woman
TTITLE5=Eric Clapton - Snake Drive
TTITLE6=Fleetwood Mac - Got To Move
TTITLE7=Eric Clapton - Telephone Blues
TTITLE8=Cyril Davies and R&B All Stars - Chicago Calling
TTITLE9=Tony McPhee - Someone To Love Me
TTITLE10=Fleetwood Mac - Madison Blues
TTITLE11=Alexis Korner - Got My Mojo Working
TTITLE12=Rod Stewart - So Much To Say
TTITLE13=Savoy Brown Blues Band - True Story
TTITLE14=Alexis Korner - Stormy Monday
TTITLE15=Fleetwood Mac - Jumping At Shadows
TTITLE16=Eric Clapton - I'm Your Witch Doctor
TTITLE17=Jeff Beck - Steelin'
TTITLE18=John Mayall's Bluesbreakers - Hideaway
TTITLE19=Eric Clapton - Freightloader
EXTD=YEAR: 1997
EXTT0=
EXTT1=
EXTT2=
EXTT3=
EXTT4=
EXTT5=
EXTT6=
EXTT7=
EXTT8=
EXTT9=
EXTT10=
EXTT11=
EXTT12=
EXTT13=
EXTT14=
EXTT15=
EXTT16=
EXTT17=
EXTT18=
EXTT19=
PLAYORDER=
